<svg xmlns="http://www.w3.org/2000/svg" xmlns:xlink="http://www.w3.org/1999/xlink" viewBox="0 0 520 520" width="520" height="520" style="width: 100%; height: 100%; transform: translate3d(0px, 0px, 0px); content-visibility: visible; filter: brightness(0) invert(1);" preserveAspectRatio="xMidYMid slice"><defs><clipPath id="__lottie_element_4"><rect width="520" height="520" x="0" y="0"></rect></clipPath><clipPath id="__lottie_element_6"><path d="M0,0 L600,0 L600,600 L0,600z"></path></clipPath><clipPath id="__lottie_element_25"><path d="M0,0 L600,0 L600,600 L0,600z"></path></clipPath><clipPath id="__lottie_element_29"><path d="M0,0 L50,0 L50,50 L0,50z"></path></clipPath><clipPath id="__lottie_element_36"><path d="M0,0 L50,0 L50,50 L0,50z"></path></clipPath><clipPath id="__lottie_element_43"><path d="M0,0 L50,0 L50,50 L0,50z"></path></clipPath><clipPath id="__lottie_element_56"><path d="M0,0 L600,0 L600,600 L0,600z"></path></clipPath><clipPath id="__lottie_element_60"><path d="M0,0 L50,0 L50,50 L0,50z"></path></clipPath><clipPath id="__lottie_element_67"><path d="M0,0 L50,0 L50,50 L0,50z"></path></clipPath><clipPath id="__lottie_element_74"><path d="M0,0 L50,0 L50,50 L0,50z"></path></clipPath><clipPath id="__lottie_element_87"><path d="M0,0 L600,0 L600,600 L0,600z"></path></clipPath><clipPath id="__lottie_element_91"><path d="M0,0 L50,0 L50,50 L0,50z"></path></clipPath><clipPath id="__lottie_element_98"><path d="M0,0 L50,0 L50,50 L0,50z"></path></clipPath><clipPath id="__lottie_element_111"><path d="M0,0 L600,0 L600,600 L0,600z"></path></clipPath><clipPath id="__lottie_element_115"><path d="M0,0 L50,0 L50,50 L0,50z"></path></clipPath><clipPath id="__lottie_element_122"><path d="M0,0 L50,0 L50,50 L0,50z"></path></clipPath><clipPath id="__lottie_element_135"><path d="M0,0 L600,0 L600,600 L0,600z"></path></clipPath><clipPath id="__lottie_element_139"><path d="M0,0 L50,0 L50,50 L0,50z"></path></clipPath><clipPath id="__lottie_element_146"><path d="M0,0 L50,0 L50,50 L0,50z"></path></clipPath><clipPath id="__lottie_element_159"><path d="M0,0 L600,0 L600,600 L0,600z"></path></clipPath><clipPath id="__lottie_element_163"><path d="M0,0 L50,0 L50,50 L0,50z"></path></clipPath><clipPath id="__lottie_element_170"><path d="M0,0 L50,0 L50,50 L0,50z"></path></clipPath><clipPath id="__lottie_element_183"><path d="M0,0 L600,0 L600,600 L0,600z"></path></clipPath><clipPath id="__lottie_element_187"><path d="M0,0 L50,0 L50,50 L0,50z"></path></clipPath><clipPath id="__lottie_element_194"><path d="M0,0 L50,0 L50,50 L0,50z"></path></clipPath><clipPath id="__lottie_element_201"><path d="M0,0 L50,0 L50,50 L0,50z"></path></clipPath><clipPath id="__lottie_element_214"><path d="M0,0 L600,0 L600,600 L0,600z"></path></clipPath><clipPath id="__lottie_element_218"><path d="M0,0 L50,0 L50,50 L0,50z"></path></clipPath><clipPath id="__lottie_element_225"><path d="M0,0 L50,0 L50,50 L0,50z"></path></clipPath><clipPath id="__lottie_element_232"><path d="M0,0 L50,0 L50,50 L0,50z"></path></clipPath></defs><g clip-path="url(#__lottie_element_4)"><g clip-path="url(#__lottie_element_214)" style="display: block;" transform="matrix(1,0,0,1,-40,-40)" opacity="1"><g style="display: block;" transform="matrix(1,0,0,1,458.864013671875,300)" opacity="1"><g opacity="1" transform="matrix(1,0,0,1,0,0)"><path stroke-linecap="round" stroke-linejoin="miter" fill-opacity="0" stroke-miterlimit="10" stroke="rgb(255,207,124)" stroke-opacity="1" stroke-width="15" d=" M-82.3270034790039,0 C-82.3270034790039,0 82.3270034790039,0 82.3270034790039,0"></path></g></g><g style="display: block;" transform="matrix(1,0,0,1,464.8699951171875,299.614013671875)" opacity="1"><g opacity="1" transform="matrix(1,0,0,1,0,0)"><path stroke-linecap="round" stroke-linejoin="miter" fill-opacity="0" stroke-miterlimit="10" stroke="rgb(255,207,124)" stroke-opacity="1" stroke-width="15" d=" M24.812000274658203,-63.96799850463867 C24.812000274658203,-63.96799850463867 -21.31100082397461,-63.96799850463867 -21.31100082397461,-63.96799850463867 C-23.243999481201172,-63.96799850463867 -24.812000274658203,-62.400001525878906 -24.812000274658203,-60.46699905395508 C-24.812000274658203,-60.46699905395508 -24.812000274658203,58.9119987487793 -24.812000274658203,58.9119987487793 C-24.812000274658203,61.70399856567383 -22.54800033569336,63.96799850463867 -19.756000518798828,63.96799850463867 C-19.756000518798828,63.96799850463867 24.812000274658203,63.96799850463867 24.812000274658203,63.96799850463867"></path></g></g><g clip-path="url(#__lottie_element_232)" style="display: block;" transform="matrix(1,0,0,1,515,275)" opacity="1"><g style="display: block;" transform="matrix(1.2782204151153564,0,0,1.2782204151153564,25,25)" opacity="1"><g opacity="1" transform="matrix(1,0,0,1,0,0)"><path fill="rgb(255,255,255)" fill-opacity="1" d=" M0,-14.809000015258789 C8.178999900817871,-14.809000015258789 14.809000015258789,-8.178999900817871 14.809000015258789,0 C14.809000015258789,8.178999900817871 8.178999900817871,14.809000015258789 0,14.809000015258789 C-8.178999900817871,14.809000015258789 -14.809000015258789,8.178999900817871 -14.809000015258789,0 C-14.809000015258789,-8.178999900817871 -8.178999900817871,-14.809000015258789 0,-14.809000015258789z"></path></g></g></g><g clip-path="url(#__lottie_element_225)" style="display: block;" transform="matrix(1,0,0,1,463,211)" opacity="1"><g style="display: block;" transform="matrix(0.9114831686019897,0,0,0.9114831686019897,25,25)" opacity="1"><g opacity="1" transform="matrix(1,0,0,1,0,0)"><path fill="rgb(255,255,255)" fill-opacity="1" d=" M0,-14.809000015258789 C8.178999900817871,-14.809000015258789 14.809000015258789,-8.178999900817871 14.809000015258789,0 C14.809000015258789,8.178999900817871 8.178999900817871,14.809000015258789 0,14.809000015258789 C-8.178999900817871,14.809000015258789 -14.809000015258789,8.178999900817871 -14.809000015258789,0 C-14.809000015258789,-8.178999900817871 -8.178999900817871,-14.809000015258789 0,-14.809000015258789z"></path></g></g></g><g clip-path="url(#__lottie_element_218)" style="display: block;" transform="matrix(1,0,0,1,463,339)" opacity="1"><g style="display: block;" transform="matrix(0.9114831686019897,0,0,0.9114831686019897,25,25)" opacity="1"><g opacity="1" transform="matrix(1,0,0,1,0,0)"><path fill="rgb(255,255,255)" fill-opacity="1" d=" M0,-14.809000015258789 C8.178999900817871,-14.809000015258789 14.809000015258789,-8.178999900817871 14.809000015258789,0 C14.809000015258789,8.178999900817871 8.178999900817871,14.809000015258789 0,14.809000015258789 C-8.178999900817871,14.809000015258789 -14.809000015258789,8.178999900817871 -14.809000015258789,0 C-14.809000015258789,-8.178999900817871 -8.178999900817871,-14.809000015258789 0,-14.809000015258789z"></path></g></g></g></g><g clip-path="url(#__lottie_element_183)" style="display: block;" transform="matrix(-1,0,0,1,560,-40)" opacity="1"><g style="display: block;" transform="matrix(1,0,0,1,458.864013671875,300)" opacity="1"><g opacity="1" transform="matrix(1,0,0,1,0,0)"><path stroke-linecap="round" stroke-linejoin="miter" fill-opacity="0" stroke-miterlimit="10" stroke="rgb(255,207,124)" stroke-opacity="1" stroke-width="15" d=" M-82.3270034790039,0 C-82.3270034790039,0 82.3270034790039,0 82.3270034790039,0"></path></g></g><g style="display: block;" transform="matrix(1,0,0,1,464.8699951171875,299.614013671875)" opacity="1"><g opacity="1" transform="matrix(1,0,0,1,0,0)"><path stroke-linecap="round" stroke-linejoin="miter" fill-opacity="0" stroke-miterlimit="10" stroke="rgb(255,207,124)" stroke-opacity="1" stroke-width="15" d=" M24.812000274658203,-63.96799850463867 C24.812000274658203,-63.96799850463867 -21.31100082397461,-63.96799850463867 -21.31100082397461,-63.96799850463867 C-23.243999481201172,-63.96799850463867 -24.812000274658203,-62.400001525878906 -24.812000274658203,-60.46699905395508 C-24.812000274658203,-60.46699905395508 -24.812000274658203,58.9119987487793 -24.812000274658203,58.9119987487793 C-24.812000274658203,61.70399856567383 -22.54800033569336,63.96799850463867 -19.756000518798828,63.96799850463867 C-19.756000518798828,63.96799850463867 24.812000274658203,63.96799850463867 24.812000274658203,63.96799850463867"></path></g></g><g clip-path="url(#__lottie_element_201)" style="display: block;" transform="matrix(1,0,0,1,515,275)" opacity="1"><g style="display: block;" transform="matrix(1.2782204151153564,0,0,1.2782204151153564,25,25)" opacity="1"><g opacity="1" transform="matrix(1,0,0,1,0,0)"><path fill="rgb(255,255,255)" fill-opacity="1" d=" M0,-14.809000015258789 C8.178999900817871,-14.809000015258789 14.809000015258789,-8.178999900817871 14.809000015258789,0 C14.809000015258789,8.178999900817871 8.178999900817871,14.809000015258789 0,14.809000015258789 C-8.178999900817871,14.809000015258789 -14.809000015258789,8.178999900817871 -14.809000015258789,0 C-14.809000015258789,-8.178999900817871 -8.178999900817871,-14.809000015258789 0,-14.809000015258789z"></path></g></g></g><g clip-path="url(#__lottie_element_194)" style="display: block;" transform="matrix(1,0,0,1,463,211)" opacity="1"><g style="display: block;" transform="matrix(0.9114831686019897,0,0,0.9114831686019897,25,25)" opacity="1"><g opacity="1" transform="matrix(1,0,0,1,0,0)"><path fill="rgb(255,255,255)" fill-opacity="1" d=" M0,-14.809000015258789 C8.178999900817871,-14.809000015258789 14.809000015258789,-8.178999900817871 14.809000015258789,0 C14.809000015258789,8.178999900817871 8.178999900817871,14.809000015258789 0,14.809000015258789 C-8.178999900817871,14.809000015258789 -14.809000015258789,8.178999900817871 -14.809000015258789,0 C-14.809000015258789,-8.178999900817871 -8.178999900817871,-14.809000015258789 0,-14.809000015258789z"></path></g></g></g><g clip-path="url(#__lottie_element_187)" style="display: block;" transform="matrix(1,0,0,1,463,339)" opacity="1"><g style="display: block;" transform="matrix(0.9114831686019897,0,0,0.9114831686019897,25,25)" opacity="1"><g opacity="1" transform="matrix(1,0,0,1,0,0)"><path fill="rgb(255,255,255)" fill-opacity="1" d=" M0,-14.809000015258789 C8.178999900817871,-14.809000015258789 14.809000015258789,-8.178999900817871 14.809000015258789,0 C14.809000015258789,8.178999900817871 8.178999900817871,14.809000015258789 0,14.809000015258789 C-8.178999900817871,14.809000015258789 -14.809000015258789,8.178999900817871 -14.809000015258789,0 C-14.809000015258789,-8.178999900817871 -8.178999900817871,-14.809000015258789 0,-14.809000015258789z"></path></g></g></g></g><g clip-path="url(#__lottie_element_159)" style="display: block;" transform="matrix(1,0,0,1,-40,-40)" opacity="1"><g style="display: block;" transform="matrix(1,0,0,1,434.4330139160156,390.7349853515625)" opacity="1"><g opacity="1" transform="matrix(1,0,0,1,0,0)"><path stroke-linecap="round" stroke-linejoin="miter" fill-opacity="0" stroke-miterlimit="10" stroke="rgb(41,41,41)" stroke-opacity="1" stroke-width="15" d=" M-100.96299743652344,-32.46699905395508 C-100.96299743652344,-32.46699905395508 -12.484999656677246,32.46699905395508 -12.484999656677246,32.46699905395508 C-12.484999656677246,32.46699905395508 100.96299743652344,32.46699905395508 100.96299743652344,32.46699905395508"></path></g></g><g style="display: block;" transform="matrix(1,0,0,1,421.947998046875,457.5580139160156)" opacity="1"><g opacity="1" transform="matrix(1,0,0,1,0,0)"><path stroke-linecap="round" stroke-linejoin="miter" fill-opacity="0" stroke-miterlimit="10" stroke="rgb(41,41,41)" stroke-opacity="1" stroke-width="15" d=" M0,34.356998443603516 C0,34.356998443603516 0,-34.356998443603516 0,-34.356998443603516"></path></g></g><g clip-path="url(#__lottie_element_170)" style="display: block;" transform="matrix(1,0,0,1,397,472)" opacity="1"><g style="display: block;" transform="matrix(1.0096371173858643,0,0,1.0096371173858643,25,25)" opacity="1"><g opacity="1" transform="matrix(1,0,0,1,0,0)"><path fill="rgb(255,255,255)" fill-opacity="1" d=" M0,-14.809000015258789 C8.178999900817871,-14.809000015258789 14.809000015258789,-8.178999900817871 14.809000015258789,0 C14.809000015258789,8.178999900817871 8.178999900817871,14.809000015258789 0,14.809000015258789 C-8.178999900817871,14.809000015258789 -14.809000015258789,8.178999900817871 -14.809000015258789,0 C-14.809000015258789,-8.178999900817871 -8.178999900817871,-14.809000015258789 0,-14.809000015258789z"></path></g></g></g><g clip-path="url(#__lottie_element_163)" style="display: block;" transform="matrix(1,0,0,1,515,399)" opacity="1"><g style="display: block;" transform="matrix(1.2379153966903687,0,0,1.2379153966903687,25,25)" opacity="1"><g opacity="1" transform="matrix(1,0,0,1,0,0)"><path fill="rgb(255,255,255)" fill-opacity="1" d=" M0,-14.809000015258789 C8.178999900817871,-14.809000015258789 14.809000015258789,-8.178999900817871 14.809000015258789,0 C14.809000015258789,8.178999900817871 8.178999900817871,14.809000015258789 0,14.809000015258789 C-8.178999900817871,14.809000015258789 -14.809000015258789,8.178999900817871 -14.809000015258789,0 C-14.809000015258789,-8.178999900817871 -8.178999900817871,-14.809000015258789 0,-14.809000015258789z"></path></g></g></g></g><g clip-path="url(#__lottie_element_135)" style="display: block;" transform="matrix(-1,0,0,1,560,-40)" opacity="1"><g style="display: block;" transform="matrix(1,0,0,1,434.4330139160156,390.7349853515625)" opacity="1"><g opacity="1" transform="matrix(1,0,0,1,0,0)"><path stroke-linecap="round" stroke-linejoin="miter" fill-opacity="0" stroke-miterlimit="10" stroke="rgb(41,41,41)" stroke-opacity="1" stroke-width="15" d=" M-100.96299743652344,-32.46699905395508 C-100.96299743652344,-32.46699905395508 -12.484999656677246,32.46699905395508 -12.484999656677246,32.46699905395508 C-12.484999656677246,32.46699905395508 100.96299743652344,32.46699905395508 100.96299743652344,32.46699905395508"></path></g></g><g style="display: block;" transform="matrix(1,0,0,1,421.947998046875,457.5580139160156)" opacity="1"><g opacity="1" transform="matrix(1,0,0,1,0,0)"><path stroke-linecap="round" stroke-linejoin="miter" fill-opacity="0" stroke-miterlimit="10" stroke="rgb(41,41,41)" stroke-opacity="1" stroke-width="15" d=" M0,34.356998443603516 C0,34.356998443603516 0,-34.356998443603516 0,-34.356998443603516"></path></g></g><g clip-path="url(#__lottie_element_146)" style="display: block;" transform="matrix(1,0,0,1,397,472)" opacity="1"><g style="display: block;" transform="matrix(1.0096371173858643,0,0,1.0096371173858643,25,25)" opacity="1"><g opacity="1" transform="matrix(1,0,0,1,0,0)"><path fill="rgb(255,255,255)" fill-opacity="1" d=" M0,-14.809000015258789 C8.178999900817871,-14.809000015258789 14.809000015258789,-8.178999900817871 14.809000015258789,0 C14.809000015258789,8.178999900817871 8.178999900817871,14.809000015258789 0,14.809000015258789 C-8.178999900817871,14.809000015258789 -14.809000015258789,8.178999900817871 -14.809000015258789,0 C-14.809000015258789,-8.178999900817871 -8.178999900817871,-14.809000015258789 0,-14.809000015258789z"></path></g></g></g><g clip-path="url(#__lottie_element_139)" style="display: block;" transform="matrix(1,0,0,1,515,399)" opacity="1"><g style="display: block;" transform="matrix(1.2379153966903687,0,0,1.2379153966903687,25,25)" opacity="1"><g opacity="1" transform="matrix(1,0,0,1,0,0)"><path fill="rgb(255,255,255)" fill-opacity="1" d=" M0,-14.809000015258789 C8.178999900817871,-14.809000015258789 14.809000015258789,-8.178999900817871 14.809000015258789,0 C14.809000015258789,8.178999900817871 8.178999900817871,14.809000015258789 0,14.809000015258789 C-8.178999900817871,14.809000015258789 -14.809000015258789,8.178999900817871 -14.809000015258789,0 C-14.809000015258789,-8.178999900817871 -8.178999900817871,-14.809000015258789 0,-14.809000015258789z"></path></g></g></g></g><g clip-path="url(#__lottie_element_111)" style="display: block;" transform="matrix(1,0,0,1,-40,-40)" opacity="1"><g style="display: block;" transform="matrix(1,0,0,1,164.5970001220703,214.88600158691406)" opacity="1"><g opacity="1" transform="matrix(1,0,0,1,0,0)"><path stroke-linecap="round" stroke-linejoin="miter" fill-opacity="0" stroke-miterlimit="10" stroke="rgb(255,152,0)" stroke-opacity="1" stroke-width="15" d=" M100.96299743652344,32.46699905395508 C100.96299743652344,32.46699905395508 12.484999656677246,-32.46699905395508 12.484999656677246,-32.46699905395508 C12.484999656677246,-32.46699905395508 -100.96299743652344,-32.46699905395508 -100.96299743652344,-32.46699905395508"></path></g></g><g style="display: block;" transform="matrix(1,0,0,1,177.08200073242188,148.06199645996094)" opacity="1"><g opacity="1" transform="matrix(1,0,0,1,0,0)"><path stroke-linecap="round" stroke-linejoin="miter" fill-opacity="0" stroke-miterlimit="10" stroke="rgb(255,152,0)" stroke-opacity="1" stroke-width="15" d=" M0,-34.356998443603516 C0,-34.356998443603516 0,34.356998443603516 0,34.356998443603516"></path></g></g><g clip-path="url(#__lottie_element_122)" style="display: block;" transform="matrix(1,0,0,1,152,79)" opacity="1"><g style="display: block;" transform="matrix(1.2927366495132446,0,0,1.2927366495132446,25,25)" opacity="1"><g opacity="1" transform="matrix(1,0,0,1,0,0)"><path fill="rgb(255,255,255)" fill-opacity="1" d=" M0,-14.809000015258789 C8.178999900817871,-14.809000015258789 14.809000015258789,-8.178999900817871 14.809000015258789,0 C14.809000015258789,8.178999900817871 8.178999900817871,14.809000015258789 0,14.809000015258789 C-8.178999900817871,14.809000015258789 -14.809000015258789,8.178999900817871 -14.809000015258789,0 C-14.809000015258789,-8.178999900817871 -8.178999900817871,-14.809000015258789 0,-14.809000015258789z"></path></g></g></g><g clip-path="url(#__lottie_element_115)" style="display: block;" transform="matrix(1,0,0,1,39,157)" opacity="1"><g style="display: block;" transform="matrix(1.067617416381836,0,0,1.067617416381836,25,25)" opacity="1"><g opacity="1" transform="matrix(1,0,0,1,0,0)"><path fill="rgb(255,255,255)" fill-opacity="1" d=" M0,-14.809000015258789 C8.178999900817871,-14.809000015258789 14.809000015258789,-8.178999900817871 14.809000015258789,0 C14.809000015258789,8.178999900817871 8.178999900817871,14.809000015258789 0,14.809000015258789 C-8.178999900817871,14.809000015258789 -14.809000015258789,8.178999900817871 -14.809000015258789,0 C-14.809000015258789,-8.178999900817871 -8.178999900817871,-14.809000015258789 0,-14.809000015258789z"></path></g></g></g></g><g clip-path="url(#__lottie_element_87)" style="display: block;" transform="matrix(-1,0,0,1,560,-40)" opacity="1"><g style="display: block;" transform="matrix(1,0,0,1,164.5970001220703,214.88600158691406)" opacity="1"><g opacity="1" transform="matrix(1,0,0,1,0,0)"><path stroke-linecap="round" stroke-linejoin="miter" fill-opacity="0" stroke-miterlimit="10" stroke="rgb(255,152,0)" stroke-opacity="1" stroke-width="15" d=" M100.96299743652344,32.46699905395508 C100.96299743652344,32.46699905395508 12.484999656677246,-32.46699905395508 12.484999656677246,-32.46699905395508 C12.484999656677246,-32.46699905395508 -100.96299743652344,-32.46699905395508 -100.96299743652344,-32.46699905395508"></path></g></g><g style="display: block;" transform="matrix(1,0,0,1,177.08200073242188,148.06199645996094)" opacity="1"><g opacity="1" transform="matrix(1,0,0,1,0,0)"><path stroke-linecap="round" stroke-linejoin="miter" fill-opacity="0" stroke-miterlimit="10" stroke="rgb(255,152,0)" stroke-opacity="1" stroke-width="15" d=" M0,-34.356998443603516 C0,-34.356998443603516 0,34.356998443603516 0,34.356998443603516"></path></g></g><g clip-path="url(#__lottie_element_98)" style="display: block;" transform="matrix(1,0,0,1,152,79)" opacity="1"><g style="display: block;" transform="matrix(1.2927366495132446,0,0,1.2927366495132446,25,25)" opacity="1"><g opacity="1" transform="matrix(1,0,0,1,0,0)"><path fill="rgb(255,255,255)" fill-opacity="1" d=" M0,-14.809000015258789 C8.178999900817871,-14.809000015258789 14.809000015258789,-8.178999900817871 14.809000015258789,0 C14.809000015258789,8.178999900817871 8.178999900817871,14.809000015258789 0,14.809000015258789 C-8.178999900817871,14.809000015258789 -14.809000015258789,8.178999900817871 -14.809000015258789,0 C-14.809000015258789,-8.178999900817871 -8.178999900817871,-14.809000015258789 0,-14.809000015258789z"></path></g></g></g><g clip-path="url(#__lottie_element_91)" style="display: block;" transform="matrix(1,0,0,1,39,157)" opacity="1"><g style="display: block;" transform="matrix(1.067617416381836,0,0,1.067617416381836,25,25)" opacity="1"><g opacity="1" transform="matrix(1,0,0,1,0,0)"><path fill="rgb(255,255,255)" fill-opacity="1" d=" M0,-14.809000015258789 C8.178999900817871,-14.809000015258789 14.809000015258789,-8.178999900817871 14.809000015258789,0 C14.809000015258789,8.178999900817871 8.178999900817871,14.809000015258789 0,14.809000015258789 C-8.178999900817871,14.809000015258789 -14.809000015258789,8.178999900817871 -14.809000015258789,0 C-14.809000015258789,-8.178999900817871 -8.178999900817871,-14.809000015258789 0,-14.809000015258789z"></path></g></g></g></g><g clip-path="url(#__lottie_element_56)" style="display: block;" transform="matrix(1,0,0,1,-40,-40)" opacity="1"><g style="display: block;" transform="matrix(1,0,0,1,300,457.10699462890625)" opacity="1"><g opacity="1" transform="matrix(1,0,0,1,0,0)"><path stroke-linecap="round" stroke-linejoin="miter" fill-opacity="0" stroke-miterlimit="10" stroke="rgb(226,226,226)" stroke-opacity="1" stroke-width="15" d=" M0,78.71600341796875 C0,78.71600341796875 0,-78.71600341796875 0,-78.71600341796875"></path></g></g><g style="display: block;" transform="matrix(1,0,0,1,301.49200439453125,469.85101318359375)" opacity="1"><g opacity="1" transform="matrix(1,0,0,1,0,0)"><path stroke-linecap="round" stroke-linejoin="miter" fill-opacity="0" stroke-miterlimit="10" stroke="rgb(226,226,226)" stroke-opacity="1" stroke-width="15" d=" M54.683998107910156,0 C54.683998107910156,0 -54.683998107910156,0 -54.683998107910156,0"></path></g></g><g clip-path="url(#__lottie_element_74)" style="display: block;" transform="matrix(1,0,0,1,331,445)" opacity="1"><g style="display: block;" transform="matrix(1,0,0,1,25,25)" opacity="1"><g opacity="1" transform="matrix(1,0,0,1,0,0)"><path fill="rgb(255,255,255)" fill-opacity="1" d=" M0,-14.809000015258789 C8.178999900817871,-14.809000015258789 14.809000015258789,-8.178999900817871 14.809000015258789,0 C14.809000015258789,8.178999900817871 8.178999900817871,14.809000015258789 0,14.809000015258789 C-8.178999900817871,14.809000015258789 -14.809000015258789,8.178999900817871 -14.809000015258789,0 C-14.809000015258789,-8.178999900817871 -8.178999900817871,-14.809000015258789 0,-14.809000015258789z"></path></g></g></g><g clip-path="url(#__lottie_element_67)" style="display: block;" transform="matrix(1,0,0,1,222,445)" opacity="1"><g style="display: block;" transform="matrix(1,0,0,1,25,25)" opacity="1"><g opacity="1" transform="matrix(1,0,0,1,0,0)"><path fill="rgb(255,255,255)" fill-opacity="1" d=" M0,-14.809000015258789 C8.178999900817871,-14.809000015258789 14.809000015258789,-8.178999900817871 14.809000015258789,0 C14.809000015258789,8.178999900817871 8.178999900817871,14.809000015258789 0,14.809000015258789 C-8.178999900817871,14.809000015258789 -14.809000015258789,8.178999900817871 -14.809000015258789,0 C-14.809000015258789,-8.178999900817871 -8.178999900817871,-14.809000015258789 0,-14.809000015258789z"></path></g></g></g><g clip-path="url(#__lottie_element_60)" style="display: block;" transform="matrix(1,0,0,1,275,514)" opacity="1"><g style="display: block;" transform="matrix(1.0096371173858643,0,0,1.0096371173858643,25,25)" opacity="1"><g opacity="1" transform="matrix(1,0,0,1,0,0)"><path fill="rgb(255,255,255)" fill-opacity="1" d=" M0,-14.809000015258789 C8.178999900817871,-14.809000015258789 14.809000015258789,-8.178999900817871 14.809000015258789,0 C14.809000015258789,8.178999900817871 8.178999900817871,14.809000015258789 0,14.809000015258789 C-8.178999900817871,14.809000015258789 -14.809000015258789,8.178999900817871 -14.809000015258789,0 C-14.809000015258789,-8.178999900817871 -8.178999900817871,-14.809000015258789 0,-14.809000015258789z"></path></g></g></g></g><g clip-path="url(#__lottie_element_25)" style="display: block;" transform="matrix(-1,0,0,-1,560,561)" opacity="1"><g style="display: block;" transform="matrix(1,0,0,1,300,457.10699462890625)" opacity="1"><g opacity="1" transform="matrix(1,0,0,1,0,0)"><path stroke-linecap="round" stroke-linejoin="miter" fill-opacity="0" stroke-miterlimit="10" stroke="rgb(226,226,226)" stroke-opacity="1" stroke-width="15" d=" M0,78.71600341796875 C0,78.71600341796875 0,-78.71600341796875 0,-78.71600341796875"></path></g></g><g style="display: block;" transform="matrix(1,0,0,1,301.49200439453125,469.85101318359375)" opacity="1"><g opacity="1" transform="matrix(1,0,0,1,0,0)"><path stroke-linecap="round" stroke-linejoin="miter" fill-opacity="0" stroke-miterlimit="10" stroke="rgb(226,226,226)" stroke-opacity="1" stroke-width="15" d=" M54.683998107910156,0 C54.683998107910156,0 -54.683998107910156,0 -54.683998107910156,0"></path></g></g><g clip-path="url(#__lottie_element_43)" style="display: block;" transform="matrix(1,0,0,1,331,445)" opacity="1"><g style="display: block;" transform="matrix(1,0,0,1,25,25)" opacity="1"><g opacity="1" transform="matrix(1,0,0,1,0,0)"><path fill="rgb(255,255,255)" fill-opacity="1" d=" M0,-14.809000015258789 C8.178999900817871,-14.809000015258789 14.809000015258789,-8.178999900817871 14.809000015258789,0 C14.809000015258789,8.178999900817871 8.178999900817871,14.809000015258789 0,14.809000015258789 C-8.178999900817871,14.809000015258789 -14.809000015258789,8.178999900817871 -14.809000015258789,0 C-14.809000015258789,-8.178999900817871 -8.178999900817871,-14.809000015258789 0,-14.809000015258789z"></path></g></g></g><g clip-path="url(#__lottie_element_36)" style="display: block;" transform="matrix(1,0,0,1,222,445)" opacity="1"><g style="display: block;" transform="matrix(1,0,0,1,25,25)" opacity="1"><g opacity="1" transform="matrix(1,0,0,1,0,0)"><path fill="rgb(255,255,255)" fill-opacity="1" d=" M0,-14.809000015258789 C8.178999900817871,-14.809000015258789 14.809000015258789,-8.178999900817871 14.809000015258789,0 C14.809000015258789,8.178999900817871 8.178999900817871,14.809000015258789 0,14.809000015258789 C-8.178999900817871,14.809000015258789 -14.809000015258789,8.178999900817871 -14.809000015258789,0 C-14.809000015258789,-8.178999900817871 -8.178999900817871,-14.809000015258789 0,-14.809000015258789z"></path></g></g></g><g clip-path="url(#__lottie_element_29)" style="display: block;" transform="matrix(1,0,0,1,275,514)" opacity="1"><g style="display: block;" transform="matrix(1.0096371173858643,0,0,1.0096371173858643,25,25)" opacity="1"><g opacity="1" transform="matrix(1,0,0,1,0,0)"><path fill="rgb(255,255,255)" fill-opacity="1" d=" M0,-14.809000015258789 C8.178999900817871,-14.809000015258789 14.809000015258789,-8.178999900817871 14.809000015258789,0 C14.809000015258789,8.178999900817871 8.178999900817871,14.809000015258789 0,14.809000015258789 C-8.178999900817871,14.809000015258789 -14.809000015258789,8.178999900817871 -14.809000015258789,0 C-14.809000015258789,-8.178999900817871 -8.178999900817871,-14.809000015258789 0,-14.809000015258789z"></path></g></g></g></g><g style="display: none;" transform="matrix(5.4341888427734375,0,0,5.4341888427734375,227.39486694335938,140.44784545898438)" opacity="0.0165838171462039"><g opacity="1" transform="matrix(1,0,0,1,6,22)"><path stroke-linecap="butt" stroke-linejoin="miter" fill-opacity="0" stroke-miterlimit="4" stroke="rgb(255,152,0)" stroke-opacity="1" stroke-width="0.04975145143861148" d=" M0,-15 C8.278499603271484,-15 15,-8.278499603271484 15,0 C15,8.278499603271484 8.278499603271484,15 0,15 C-8.278499603271484,15 -15,8.278499603271484 -15,0 C-15,-8.278499603271484 -8.278499603271484,-15 0,-15z"></path></g></g><g style="display: block;" transform="matrix(1,0,0,1,260,262.7040100097656)" opacity="1"><g opacity="1" transform="matrix(1,0,0,1,0,0)"><path fill="rgb(255,152,0)" fill-opacity="1" d=" M84.26399993896484,40.617000579833984 C84.26399993896484,40.617000579833984 84.26399993896484,-40.617000579833984 84.26399993896484,-40.617000579833984 C84.26399993896484,-45.5880012512207 81.61199951171875,-50.180999755859375 77.30699920654297,-52.66699981689453 C77.30699920654297,-52.66699981689453 6.956999778747559,-93.28299713134766 6.956999778747559,-93.28299713134766 C2.6519999504089355,-95.76899719238281 -2.6519999504089355,-95.76899719238281 -6.956999778747559,-93.28299713134766 C-6.956999778747559,-93.28299713134766 -77.30699920654297,-52.66699981689453 -77.30699920654297,-52.66699981689453 C-81.61199951171875,-50.180999755859375 -84.26399993896484,-45.5880012512207 -84.26399993896484,-40.617000579833984 C-84.26399993896484,-40.617000579833984 -84.26399993896484,40.617000579833984 -84.26399993896484,40.617000579833984 C-84.26399993896484,45.5880012512207 -81.61199951171875,50.180999755859375 -77.30699920654297,52.66699981689453 C-77.30699920654297,52.66699981689453 -6.956999778747559,93.28299713134766 -6.956999778747559,93.28299713134766 C-2.6519999504089355,95.76899719238281 2.6519999504089355,95.76899719238281 6.956999778747559,93.28299713134766 C6.956999778747559,93.28299713134766 77.30699920654297,52.66699981689453 77.30699920654297,52.66699981689453 C81.61199951171875,50.180999755859375 84.26399993896484,45.5880012512207 84.26399993896484,40.617000579833984z"></path></g></g><g clip-path="url(#__lottie_element_6)" style="display: block;" transform="matrix(1,0,0,1,-40,-40)" opacity="1"><g style="display: block;" transform="matrix(1,0,0,1,281.5820007324219,303.71600341796875)" opacity="1"><g opacity="1" transform="matrix(1,0,0,1,0,0)"><path stroke-linecap="round" stroke-linejoin="round" fill-opacity="0" stroke="rgb(255,255,255)" stroke-opacity="1" stroke-width="15" d=" M-24.941999435424805,30.695999145507812 C-24.941999435424805,30.695999145507812 0.7229999899864197,-31.42099952697754 0.7229999899864197,-31.42099952697754 C0.7229999899864197,-31.42099952697754 24.941999435424805,31.42099952697754 24.941999435424805,31.42099952697754"></path></g></g><g style="display: block;" transform="matrix(1,0,0,1,281.47698974609375,313.7749938964844)" opacity="1"><g opacity="1" transform="matrix(1,0,0,1,0,0)"><path stroke-linecap="round" stroke-linejoin="round" fill-opacity="0" stroke="rgb(255,255,255)" stroke-opacity="1" stroke-width="15" d=" M-16.31100082397461,0 C-16.31100082397461,0 16.31100082397461,0 16.31100082397461,0"></path></g></g><g style="display: block;" transform="matrix(1,0,0,1,328.88299560546875,304.18701171875)" opacity="1"><g opacity="1" transform="matrix(1,0,0,1,0,0)"><path stroke-linecap="round" stroke-linejoin="round" fill-opacity="0" stroke="rgb(255,255,255)" stroke-opacity="1" stroke-width="15" d=" M0,31.44700050354004 C0,31.44700050354004 0,-31.44700050354004 0,-31.44700050354004"></path></g></g></g></g></svg>