<svg xmlns="http://www.w3.org/2000/svg" xmlns:xlink="http://www.w3.org/1999/xlink" viewBox="0 0 512 512" width="512" height="512" style="width: 100%; height: 100%; transform: translate3d(0px, 0px, 0px); content-visibility: visible; filter: brightness(0);" preserveAspectRatio="xMidYMid slice"><defs><clipPath id="__lottie_element_244"><rect width="512" height="512" x="0" y="0"></rect></clipPath></defs><g clip-path="url(#__lottie_element_244)"><g style="display: block;" transform="matrix(1,0,0,1,256,256)" opacity="1"><g opacity="1" transform="matrix(1,0,0,1,0,0)"><path stroke-linecap="round" stroke-linejoin="round" fill-opacity="0" stroke="rgb(0,0,0)" stroke-opacity="1" stroke-width="7.454" d=" M225,-139.66900634765625 C225,-139.66900634765625 225,139.66900634765625 225,139.66900634765625 C225,163.8260040283203 205.41600036621094,183.41000366210938 181.25900268554688,183.41000366210938 C181.25900268554688,183.41000366210938 -181.25900268554688,183.41000366210938 -181.25900268554688,183.41000366210938 C-205.41600036621094,183.41000366210938 -225,163.8260040283203 -225,139.66900634765625 C-225,139.66900634765625 -225,82.45600128173828 -225,19.815000534057617"></path></g><g opacity="1" transform="matrix(1,0,0,1,0,0)"><path stroke-linecap="round" stroke-linejoin="round" fill-opacity="0" stroke="rgb(0,0,0)" stroke-opacity="1" stroke-width="7.454" d=" M-179.11700439453125,125.09200286865234 C-179.11700439453125,125.09200286865234 -179.11700439453125,-125.09100341796875 -179.11700439453125,-125.09100341796875 C-179.11700439453125,-131.95700073242188 -173.55099487304688,-137.5240020751953 -166.68499755859375,-137.5240020751953 C-166.68499755859375,-137.5240020751953 166.68099975585938,-137.5240020751953 166.68099975585938,-137.5240020751953 C173.5469970703125,-137.5240020751953 179.11399841308594,-131.95700073242188 179.11399841308594,-125.09100341796875 C179.11399841308594,-125.09100341796875 179.11399841308594,-80.71099853515625 179.11399841308594,-29.333999633789062"></path></g><g opacity="1" transform="matrix(1,0,0,1,0,0)"><g opacity="1" transform="matrix(1,0,0,1,0,0)"><g opacity="1" transform="matrix(1,0,0,1,0,0)"><path stroke-linecap="round" stroke-linejoin="round" fill-opacity="0" stroke="rgb(0,0,0)" stroke-opacity="1" stroke-width="7.454" d=" M-67.79399871826172,-60.52399826049805 C-67.79399871826172,-48.10900115966797 -77.90499877929688,-38.053001403808594 -90.26499938964844,-38.053001403808594 C-102.68000030517578,-38.053001403808594 -112.73600006103516,-48.10900115966797 -112.73600006103516,-60.52399826049805 C-112.73600006103516,-64.29399871826172 -111.80899810791016,-67.84600067138672 -110.16999816894531,-70.96499633789062"></path></g></g><g opacity="1" transform="matrix(1,0,0,1,0,0)"><g opacity="1" transform="matrix(1,0,0,1,0,0)"><path stroke-linecap="round" stroke-linejoin="round" fill-opacity="0" stroke="rgb(0,0,0)" stroke-opacity="1" stroke-width="7.454" d=" M119.16200256347656,-37.071998596191406 C119.16200256347656,-25.636999130249023 109.8499984741211,-16.375999450683594 98.46600341796875,-16.375999450683594 C87.03199768066406,-16.375999450683594 77.7699966430664,-25.636999130249023 77.7699966430664,-37.071998596191406 C77.7699966430664,-40.54399871826172 78.6240005493164,-43.814998626708984 80.13300323486328,-46.6879997253418"></path></g></g><g opacity="1" transform="matrix(1,0,0,1,0,0)"><g opacity="1" transform="matrix(1,0,0,1,0,0)"><path stroke-linecap="round" stroke-linejoin="round" fill-opacity="0" stroke="rgb(0,0,0)" stroke-opacity="1" stroke-width="7.454" d=" M-74.51000213623047,64.73400115966797 C-74.51000213623047,77.06900024414062 -84.55599975585938,87.05999755859375 -96.83599853515625,87.05999755859375 C-109.1709976196289,87.05999755859375 -119.16200256347656,77.06900024414062 -119.16200256347656,64.73400115966797 C-119.16200256347656,60.98899841308594 -118.24099731445312,57.45899963378906 -116.61299896240234,54.36000061035156"></path></g></g><g opacity="1" transform="matrix(1,0,0,1,0,0)"><g opacity="1" transform="matrix(1,0,0,1,0,0)"><path stroke-linecap="round" stroke-linejoin="round" fill-opacity="0" stroke="rgb(0,0,0)" stroke-opacity="1" stroke-width="7.454" d=" M19.1560001373291,-20.882999420166016 C19.1560001373291,-20.882999420166016 2.065000057220459,-3.7920000553131104 -13.267000198364258,11.541000366210938"></path></g><g opacity="1" transform="matrix(1,0,0,1,0,0)"><path stroke-linecap="round" stroke-linejoin="round" fill-opacity="0" stroke="rgb(0,0,0)" stroke-opacity="1" stroke-width="7.454" d=" M-37.04600143432617,-20.882999420166016 C-37.04600143432617,-20.882999420166016 -19.954999923706055,-3.7920000553131104 -4.623000144958496,11.541000366210938"></path></g></g><g opacity="1" transform="matrix(1,0,0,1,0,0)"><g opacity="1" transform="matrix(1,0,0,1,0,0)"><path stroke-linecap="round" stroke-linejoin="round" fill-opacity="0" stroke="rgb(0,0,0)" stroke-opacity="1" stroke-width="7.454" d=" M111.74700164794922,47.35900115966797 C111.74700164794922,47.35900115966797 98.74600219726562,60.36000061035156 87.08300018310547,72.02300262451172"></path></g><g opacity="1" transform="matrix(1,0,0,1,0,0)"><path stroke-linecap="round" stroke-linejoin="round" fill-opacity="0" stroke="rgb(0,0,0)" stroke-opacity="1" stroke-width="7.454" d=" M68.99400329589844,47.35900115966797 C68.99400329589844,47.35900115966797 81.99500274658203,60.36000061035156 93.65799713134766,72.02300262451172"></path></g></g><g opacity="1" transform="matrix(1,0,0,1,0,0)"><path stroke-linecap="round" stroke-linejoin="round" fill-opacity="0" stroke="rgb(0,0,0)" stroke-opacity="1" stroke-width="7.454" d=" M40.933998107910156,-90.11199951171875 C40.933998107910156,-90.11199951171875 29.07900047302246,-81.76300048828125 18.444000244140625,-74.27300262451172"></path></g></g></g></g></svg>