<svg xmlns="http://www.w3.org/2000/svg" xmlns:xlink="http://www.w3.org/1999/xlink" viewBox="0 0 512 512" width="512" height="512" style="width: 100%; height: 100%; transform: translate3d(0px, 0px, 0px); content-visibility: visible;" preserveAspectRatio="xMidYMid slice"><defs><clipPath id="__lottie_element_248"><rect width="512" height="512" x="0" y="0"></rect></clipPath><linearGradient id="__lottie_element_254" spreadMethod="pad" gradientUnits="userSpaceOnUse" x1="790.3140258789062" y1="-21.37299919128418" x2="838.1229858398438" y2="-58.9119987487793"><stop offset="0%" stop-color="rgb(255,255,255)"></stop><stop offset="100%" stop-color="rgb(0,0,0)"></stop></linearGradient></defs><g clip-path="url(#__lottie_element_248)"><g style="display: block;" transform="matrix(1,0,0,1,263.95098876953125,273.8240051269531)" opacity="1"><g opacity="1" transform="matrix(1,0,0,1,0,0)"><path fill="rgb(223,237,255)" fill-opacity="1" d=" M183.09800720214844,70.84200286865234 C144.3179931640625,162.1529998779297 41.018001556396484,213.30499267578125 -48.56399917602539,199.5070037841797 C-63.14099884033203,197.26199340820312 -103.10399627685547,190.57400512695312 -138.48599243164062,159.02099609375 C-206.59800720214844,98.27899932861328 -221.16400146484375,-21.99799919128418 -166.22000122070312,-106.76000213623047 C-126.23100280761719,-168.45199584960938 -54.54499816894531,-203.42300415039062 13.569999694824219,-201.6739959716797 C28.242000579833984,-201.2969970703125 84.47000122070312,-198.97500610351562 133.88600158691406,-158.22799682617188 C141.1439971923828,-152.2429962158203 157.1529998779297,-138.02099609375 171.58099365234375,-115.45899963378906 C205.4600067138672,-62.479000091552734 208.37100219726562,11.333999633789062 183.09800720214844,70.84200286865234z"></path></g></g><g style="display: block;" transform="matrix(1,0,0,1,0,0)" opacity="1"><g opacity="1" transform="matrix(1,0,0,1,143.43600463867188,322.8489990234375)"><path fill="rgb(197,223,255)" fill-opacity="1" d=" M65.61199951171875,112.4990005493164 C65.61199951171875,112.4990005493164 25.04400062561035,-32.04999923706055 -46.138999938964844,-109.64099884033203 C-50.92399978637695,-114.85700225830078 -59.005001068115234,-112.58999633789062 -60.37099838256836,-105.62699890136719 C-69.50199890136719,-59.066001892089844 -84.03099822998047,81.82499694824219 65.61199951171875,112.4990005493164z"></path></g><g opacity="0.5" transform="matrix(1,0,0,1,146.7480010986328,342.1700134277344)"><path fill="rgb(255,255,255)" fill-opacity="1" d=" M48.24300003051758,84.15299987792969 C48.59400177001953,84.49099731445312 48.1879997253418,85.0510025024414 47.79899978637695,84.76399993896484 C33.46699905395508,74.1989974975586 -22.607999801635742,21.915000915527344 -48.367000579833984,-84.50299835205078 C-48.45000076293945,-84.84500122070312 -47.98699951171875,-84.98799896240234 -47.87699890136719,-84.65399932861328 C-39.78900146484375,-60.04100036621094 -7.300000190734863,30.648000717163086 48.24300003051758,84.15299987792969z"></path></g></g><g style="display: block;" transform="matrix(1,0,0,1,0,0)" opacity="1"><g opacity="1" transform="matrix(1,0,0,1,188.08200073242188,289.87799072265625)"><path fill="rgb(197,223,255)" fill-opacity="1" d=" M21.690000534057617,92.7249984741211 C21.690000534057617,92.7249984741211 42.749000549316406,-14 19.400999069213867,-88.09300231933594 C17.832000732421875,-93.0739974975586 11.38700008392334,-94.36499786376953 8.043999671936035,-90.35299682617188 C-14.307999610900879,-63.525001525878906 -72.75700378417969,22.108999252319336 21.690000534057617,92.7249984741211z"></path></g><g opacity="0.5" transform="matrix(1,0,0,1,194.3769989013672,301.49798583984375)"><path fill="rgb(255,255,255)" fill-opacity="1" d=" M8.628000259399414,70.52300262451172 C8.758999824523926,70.86000061035156 8.281999588012695,71.08100128173828 8.107000350952148,70.76499938964844 C1.6740000247955322,59.097999572753906 -19.746000289916992,6.413000106811523 -1.3619999885559082,-70.76200103759766 C-1.3029999732971191,-71.01000213623047 -0.9290000200271606,-70.94400024414062 -0.9660000205039978,-70.69200134277344 C-3.7239999771118164,-52.11800003051758 -12.00100040435791,17.233999252319336 8.628000259399414,70.52300262451172z"></path></g></g><g style="display: block;" transform="matrix(1,0,0,1,0,0)" opacity="1"><g opacity="1" transform="matrix(1,0,0,1,351.3089904785156,281.7650146484375)"><path fill="rgb(197,223,255)" fill-opacity="1" d=" M-63.09400177001953,98.31400299072266 C-63.09400177001953,98.31400299072266 -23.733999252319336,-29.427000045776367 44.672000885009766,-96.0009994506836 C49.27000045776367,-100.47599792480469 56.994998931884766,-98.12200164794922 58.2760009765625,-91.83399963378906 C66.83999633789062,-49.79100036621094 80.21800231933594,76.9010009765625 -63.09400177001953,98.31400299072266z"></path></g><g opacity="0.5" transform="matrix(1,0,0,1,348.1789855957031,299.197998046875)"><path fill="rgb(255,255,255)" fill-opacity="1" d=" M-46.479000091552734,73.37100219726562 C-46.816001892089844,73.66000366210938 -46.43000030517578,74.1780014038086 -46.05699920654297,73.93699645996094 C-32.303001403808594,65.05899810791016 21.55299949645996,20.525999069213867 46.5989990234375,-73.68399810791016 C46.67900085449219,-73.98699951171875 46.236000061035156,-74.13400268554688 46.130001068115234,-73.83899688720703 C38.29899978637695,-52.1349983215332 6.872000217437744,27.724000930786133 -46.479000091552734,73.37100219726562z"></path></g></g><g style="display: block;" transform="matrix(1,0,0,0,0,474.52899169921875)" opacity="1"><g opacity="1" transform="matrix(1,0,0,1,281.6300048828125,369.4620056152344)"><path fill="rgb(49,65,255)" fill-opacity="1" d=" M52.85100173950195,105.06600189208984 C52.85100173950195,105.06600189208984 -52.85100173950195,105.06600189208984 -52.85100173950195,105.06600189208984 C-52.85100173950195,105.06600189208984 -52.85100173950195,-65.43699645996094 -52.85100173950195,-65.43699645996094 C-52.85100173950195,-87.3239974975586 -35.108001708984375,-105.06600189208984 -13.220999717712402,-105.06600189208984 C-13.220999717712402,-105.06600189208984 13.220999717712402,-105.06600189208984 13.220999717712402,-105.06600189208984 C35.108001708984375,-105.06600189208984 52.85100173950195,-87.3239974975586 52.85100173950195,-65.43699645996094 C52.85100173950195,-65.43699645996094 52.85100173950195,105.06600189208984 52.85100173950195,105.06600189208984z"></path></g><g opacity="1" transform="matrix(1,0,0,1,254.7790069580078,369.4620056152344)"><path fill="rgb(49,65,255)" fill-opacity="1" d=" M52.85100173950195,105.06600189208984 C52.85100173950195,105.06600189208984 -52.85100173950195,105.06600189208984 -52.85100173950195,105.06600189208984 C-52.85100173950195,105.06600189208984 -52.85100173950195,-65.43699645996094 -52.85100173950195,-65.43699645996094 C-52.85100173950195,-87.3239974975586 -35.108001708984375,-105.06600189208984 -13.220999717712402,-105.06600189208984 C-13.220999717712402,-105.06600189208984 13.220999717712402,-105.06600189208984 13.220999717712402,-105.06600189208984 C35.108001708984375,-105.06600189208984 52.85100173950195,-87.3239974975586 52.85100173950195,-65.43699645996094 C52.85100173950195,-65.43699645996094 52.85100173950195,105.06600189208984 52.85100173950195,105.06600189208984z"></path></g><g opacity="1" transform="matrix(1,0,0,1,0,0)"><g opacity="0.76" transform="matrix(1,0,0,1,225.302001953125,288.61700439453125)"><path fill="rgb(255,255,255)" fill-opacity="1" d=" M-16.28700065612793,15.027000427246094 C-16.69099998474121,15.027000427246094 -17.018999099731445,14.699000358581543 -17.018999099731445,14.295000076293945 C-17.018999099731445,14.295000076293945 -17.018999099731445,-0.6140000224113464 -17.018999099731445,-0.6140000224113464 C-17.018999099731445,-8.560999870300293 -11.184000015258789,-15.027000427246094 -4.01200008392334,-15.027000427246094 C-4.01200008392334,-15.027000427246094 16.28700065612793,-15.027000427246094 16.28700065612793,-15.027000427246094 C16.69099998474121,-15.027000427246094 17.018999099731445,-14.699000358581543 17.018999099731445,-14.295000076293945 C17.018999099731445,-13.890999794006348 16.69099998474121,-13.562999725341797 16.28700065612793,-13.562999725341797 C16.28700065612793,-13.562999725341797 -4.01200008392334,-13.562999725341797 -4.01200008392334,-13.562999725341797 C-10.376999855041504,-13.562999725341797 -15.555000305175781,-7.754000186920166 -15.555000305175781,-0.6140000224113464 C-15.555000305175781,-0.6140000224113464 -15.555000305175781,14.295000076293945 -15.555000305175781,14.295000076293945 C-15.555000305175781,14.699000358581543 -15.883000373840332,15.027000427246094 -16.28700065612793,15.027000427246094z"></path></g><g opacity="0.76" transform="matrix(1,0,0,1,209.01499938964844,315.6830139160156)"><path fill="rgb(255,255,255)" fill-opacity="1" d=" M0,3.7690000534057617 C-0.40400001406669617,3.7690000534057617 -0.7319999933242798,3.440999984741211 -0.7319999933242798,3.0369999408721924 C-0.7319999933242798,3.0369999408721924 -0.7319999933242798,-3.0369999408721924 -0.7319999933242798,-3.0369999408721924 C-0.7319999933242798,-3.440999984741211 -0.40400001406669617,-3.7690000534057617 0,-3.7690000534057617 C0.40400001406669617,-3.7690000534057617 0.7319999933242798,-3.440999984741211 0.7319999933242798,-3.0369999408721924 C0.7319999933242798,-3.0369999408721924 0.7319999933242798,3.0369999408721924 0.7319999933242798,3.0369999408721924 C0.7319999933242798,3.440999984741211 0.40400001406669617,3.7690000534057617 0,3.7690000534057617z"></path></g></g></g><g style="display: none;"><g><path></path></g><g><path></path></g><g><g><path></path></g><g><path></path></g></g></g><g style="display: block;" transform="matrix(1,0,0,0,0,474.52899169921875)" opacity="1"><g opacity="1" transform="matrix(1,0,0,1,166.90899658203125,400.32000732421875)"><path fill="rgb(49,65,255)" fill-opacity="1" d=" M45.540000915527344,74.20899963378906 C45.540000915527344,74.20899963378906 -45.540000915527344,74.20899963378906 -45.540000915527344,74.20899963378906 C-45.540000915527344,74.20899963378906 -45.540000915527344,-40.06100082397461 -45.540000915527344,-40.06100082397461 C-45.540000915527344,-58.91999816894531 -30.25200080871582,-74.20899963378906 -11.392999649047852,-74.20899963378906 C-11.392999649047852,-74.20899963378906 11.392999649047852,-74.20899963378906 11.392999649047852,-74.20899963378906 C30.25200080871582,-74.20899963378906 45.540000915527344,-58.91999816894531 45.540000915527344,-40.06100082397461 C45.540000915527344,-40.06100082397461 45.540000915527344,74.20899963378906 45.540000915527344,74.20899963378906z"></path></g><g opacity="1" transform="matrix(1,0,0,1,140.05799865722656,400.32000732421875)"><path fill="rgb(88,101,255)" fill-opacity="1" d=" M45.540000915527344,74.20899963378906 C45.540000915527344,74.20899963378906 -45.540000915527344,74.20899963378906 -45.540000915527344,74.20899963378906 C-45.540000915527344,74.20899963378906 -45.540000915527344,-40.06100082397461 -45.540000915527344,-40.06100082397461 C-45.540000915527344,-58.91999816894531 -30.25200080871582,-74.20899963378906 -11.392999649047852,-74.20899963378906 C-11.392999649047852,-74.20899963378906 11.392999649047852,-74.20899963378906 11.392999649047852,-74.20899963378906 C30.25200080871582,-74.20899963378906 45.540000915527344,-58.91999816894531 45.540000915527344,-40.06100082397461 C45.540000915527344,-40.06100082397461 45.540000915527344,74.20899963378906 45.540000915527344,74.20899963378906z"></path></g><g opacity="1" transform="matrix(1,0,0,1,0,0)"><g opacity="1" transform="matrix(1,0,0,1,121.25199890136719,350.78900146484375)"><path fill="rgb(255,255,255)" fill-opacity="1" d=" M-19.21500015258789,17.597000122070312 C-19.618999481201172,17.597000122070312 -19.94700050354004,17.268999099731445 -19.94700050354004,16.864999771118164 C-19.94700050354004,16.864999771118164 -19.94700050354004,-0.7239999771118164 -19.94700050354004,-0.7239999771118164 C-19.94700050354004,-10.027999877929688 -13.123000144958496,-17.597000122070312 -4.734000205993652,-17.597000122070312 C-4.734000205993652,-17.597000122070312 19.21500015258789,-17.597000122070312 19.21500015258789,-17.597000122070312 C19.618999481201172,-17.597000122070312 19.94700050354004,-17.268999099731445 19.94700050354004,-16.864999771118164 C19.94700050354004,-16.461000442504883 19.618999481201172,-16.132999420166016 19.21500015258789,-16.132999420166016 C19.21500015258789,-16.132999420166016 -4.734000205993652,-16.132999420166016 -4.734000205993652,-16.132999420166016 C-12.315999984741211,-16.132999420166016 -18.482999801635742,-9.220999717712402 -18.482999801635742,-0.7239999771118164 C-18.482999801635742,-0.7239999771118164 -18.482999801635742,16.864999771118164 -18.482999801635742,16.864999771118164 C-18.482999801635742,17.268999099731445 -18.81100082397461,17.597000122070312 -19.21500015258789,17.597000122070312z"></path></g><g opacity="1" transform="matrix(1,0,0,1,102.03700256347656,382.72100830078125)"><path fill="rgb(255,255,255)" fill-opacity="1" d=" M0,4.315000057220459 C-0.40400001406669617,4.315000057220459 -0.7319999933242798,3.986999988555908 -0.7319999933242798,3.5829999446868896 C-0.7319999933242798,3.5829999446868896 -0.7319999933242798,-3.5829999446868896 -0.7319999933242798,-3.5829999446868896 C-0.7319999933242798,-3.986999988555908 -0.40400001406669617,-4.315000057220459 0,-4.315000057220459 C0.40400001406669617,-4.315000057220459 0.7319999933242798,-3.986999988555908 0.7319999933242798,-3.5829999446868896 C0.7319999933242798,-3.5829999446868896 0.7319999933242798,3.5829999446868896 0.7319999933242798,3.5829999446868896 C0.7319999933242798,3.986999988555908 0.40400001406669617,4.315000057220459 0,4.315000057220459z"></path></g></g></g><g style="display: none;"><g><path></path></g><g><path></path></g><g><g><path></path></g><g><path></path></g></g></g><g style="display: block;" transform="matrix(1,0,0,0,0,474.52899169921875)" opacity="1"><g opacity="1" transform="matrix(1,0,0,1,391.4389953613281,400.32000732421875)"><path fill="rgb(52,68,230)" fill-opacity="1" d=" M45.540000915527344,74.20899963378906 C45.540000915527344,74.20899963378906 -45.540000915527344,74.20899963378906 -45.540000915527344,74.20899963378906 C-45.540000915527344,74.20899963378906 -45.540000915527344,-40.06100082397461 -45.540000915527344,-40.06100082397461 C-45.540000915527344,-58.91999816894531 -30.25200080871582,-74.20899963378906 -11.392999649047852,-74.20899963378906 C-11.392999649047852,-74.20899963378906 11.392999649047852,-74.20899963378906 11.392999649047852,-74.20899963378906 C30.25200080871582,-74.20899963378906 45.540000915527344,-58.91999816894531 45.540000915527344,-40.06100082397461 C45.540000915527344,-40.06100082397461 45.540000915527344,74.20899963378906 45.540000915527344,74.20899963378906z"></path></g><g opacity="1" transform="matrix(1,0,0,1,364.5880126953125,400.32000732421875)"><path fill="rgb(87,100,255)" fill-opacity="1" d=" M45.540000915527344,74.20899963378906 C45.540000915527344,74.20899963378906 -45.540000915527344,74.20899963378906 -45.540000915527344,74.20899963378906 C-45.540000915527344,74.20899963378906 -45.540000915527344,-40.06100082397461 -45.540000915527344,-40.06100082397461 C-45.540000915527344,-58.91999816894531 -30.25200080871582,-74.20899963378906 -11.392999649047852,-74.20899963378906 C-11.392999649047852,-74.20899963378906 11.392999649047852,-74.20899963378906 11.392999649047852,-74.20899963378906 C30.25200080871582,-74.20899963378906 45.540000915527344,-58.91999816894531 45.540000915527344,-40.06100082397461 C45.540000915527344,-40.06100082397461 45.540000915527344,74.20899963378906 45.540000915527344,74.20899963378906z"></path></g><g opacity="1" transform="matrix(1,0,0,1,0,0)"><g opacity="0.76" transform="matrix(1,0,0,1,345.7820129394531,350.78900146484375)"><path fill="rgb(255,255,255)" fill-opacity="1" d=" M-19.21500015258789,17.597000122070312 C-19.618999481201172,17.597000122070312 -19.94700050354004,17.268999099731445 -19.94700050354004,16.864999771118164 C-19.94700050354004,16.864999771118164 -19.94700050354004,-0.7239999771118164 -19.94700050354004,-0.7239999771118164 C-19.94700050354004,-10.027999877929688 -13.123000144958496,-17.597000122070312 -4.734000205993652,-17.597000122070312 C-4.734000205993652,-17.597000122070312 19.21500015258789,-17.597000122070312 19.21500015258789,-17.597000122070312 C19.618999481201172,-17.597000122070312 19.94700050354004,-17.268999099731445 19.94700050354004,-16.864999771118164 C19.94700050354004,-16.461000442504883 19.618999481201172,-16.132999420166016 19.21500015258789,-16.132999420166016 C19.21500015258789,-16.132999420166016 -4.734000205993652,-16.132999420166016 -4.734000205993652,-16.132999420166016 C-12.315999984741211,-16.132999420166016 -18.482999801635742,-9.220999717712402 -18.482999801635742,-0.7239999771118164 C-18.482999801635742,-0.7239999771118164 -18.482999801635742,16.864999771118164 -18.482999801635742,16.864999771118164 C-18.482999801635742,17.268999099731445 -18.81100082397461,17.597000122070312 -19.21500015258789,17.597000122070312z"></path></g><g opacity="0.76" transform="matrix(1,0,0,1,326.5660095214844,382.72100830078125)"><path fill="rgb(255,255,255)" fill-opacity="1" d=" M0,4.315000057220459 C-0.40400001406669617,4.315000057220459 -0.7319999933242798,3.986999988555908 -0.7319999933242798,3.5829999446868896 C-0.7319999933242798,3.5829999446868896 -0.7319999933242798,-3.5829999446868896 -0.7319999933242798,-3.5829999446868896 C-0.7319999933242798,-3.986999988555908 -0.40400001406669617,-4.315000057220459 0,-4.315000057220459 C0.40400001406669617,-4.315000057220459 0.7319999933242798,-3.986999988555908 0.7319999933242798,-3.5829999446868896 C0.7319999933242798,-3.5829999446868896 0.7319999933242798,3.5829999446868896 0.7319999933242798,3.5829999446868896 C0.7319999933242798,3.986999988555908 0.40400001406669617,4.315000057220459 0,4.315000057220459z"></path></g></g></g><g style="display: none;"><g><path></path></g><g><path></path></g><g><g><path></path></g><g><path></path></g></g></g><g style="display: block;" transform="matrix(0,0,0,0,263.4530029296875,267.1520080566406)" opacity="1"><g opacity="1" transform="matrix(1,0,0,1,0,0)"><g opacity="1" transform="matrix(1,0,0,1,357.44500732421875,100.71600341796875)"><path fill="rgb(255,120,170)" fill-opacity="1" d=" M-42.7400016784668,-20.058000564575195 C-26.540000915527344,-24.857999801635742 -11.090999603271484,-23.56399917602539 -3.378000020980835,-21.52400016784668 C5.739999771118164,-19.113000869750977 8.765000343322754,-17.30500030517578 16.836999893188477,-16.393999099731445 C24.011999130249023,-15.585000038146973 43.07899856567383,-21.389999389648438 40.63800048828125,-17.023000717163086 C37.45600128173828,-11.331000328063965 38.32600021362305,10.961999893188477 43.077999114990234,20.256000518798828 C43.76900100708008,21.607999801635742 21.18899917602539,24.954999923706055 7.506999969482422,22.454999923706055 C-11.354999542236328,19.009000778198242 -17.427000045776367,13.229000091552734 -29.812999725341797,15.857999801635742 C-35.5260009765625,17.070999145507812 -39.86800003051758,19.496999740600586 -42.641998291015625,21.354999542236328 C-41.37900161743164,7.611999988555908 -44.00299835205078,-6.315000057220459 -42.7400016784668,-20.058000564575195z"></path></g><g opacity="1" transform="matrix(1,0,0,1,314.9100036621094,170.53900146484375)"><path fill="rgb(10,15,98)" fill-opacity="1" d=" M0,95.03199768066406 C-0.40400001406669617,95.03199768066406 -0.7319999933242798,94.7040023803711 -0.7319999933242798,94.30000305175781 C-0.7319999933242798,94.30000305175781 -0.7319999933242798,-94.30000305175781 -0.7319999933242798,-94.30000305175781 C-0.7319999933242798,-94.7040023803711 -0.40400001406669617,-95.03199768066406 0,-95.03199768066406 C0.40400001406669617,-95.03199768066406 0.7319999933242798,-94.7040023803711 0.7319999933242798,-94.30000305175781 C0.7319999933242798,-94.30000305175781 0.7319999933242798,94.30000305175781 0.7319999933242798,94.30000305175781 C0.7319999933242798,94.7040023803711 0.40400001406669617,95.03199768066406 0,95.03199768066406z"></path></g></g></g><g style="display: block;" transform="matrix(0,0,0,0,263.4530029296875,267.1520080566406)" opacity="1"><g opacity="1" transform="matrix(1,0,0,1,0,0)"><g opacity="1" transform="matrix(1,0,0,1,240.31399536132812,261.23699951171875)"><path fill="rgb(37,48,173)" fill-opacity="1" d=" M-6.499000072479248,4.355999946594238 C-6.500999927520752,4.257999897003174 -6.49399995803833,4.158999919891357 -6.468999862670898,4.059000015258789 C-4.988999843597412,-1.809000015258789 1.062999963760376,-4.816999912261963 1.062999963760376,-4.816999912261963 C1.062999963760376,-4.816999912261963 3.9739999771118164,-4.589000225067139 3.9739999771118164,-4.589000225067139 C5.6479997634887695,0.5830000042915344 6.7270002365112305,3.1080000400543213 6.458000183105469,4.520999908447266 C6.451000213623047,4.560999870300293 6.438000202178955,4.5980000495910645 6.427999973297119,4.636000156402588 C4.0269999504089355,4.85099983215332 -0.9160000085830688,4.991000175476074 -6.499000072479248,4.355999946594238z"></path></g><g opacity="1" transform="matrix(1,0,0,1,240.31399536132812,266.37298583984375)"><path fill="url(#__lottie_element_254)" fill-opacity="1" d=" M6.464000225067139,-0.49900001287460327 C6.334000110626221,-0.027000000700354576 5.986000061035156,0.3400000035762787 5.539999961853027,0.4339999854564667 C2.124000072479248,1.1519999504089355 -3.305000066757202,0.5740000009536743 -5.585000038146973,0.2759999930858612 C-6.0879998207092285,0.20999999344348907 -6.455999851226807,-0.2549999952316284 -6.464000225067139,-0.7799999713897705 C-0.8809999823570251,-0.14499999582767487 4.063000202178955,-0.2840000092983246 6.464000225067139,-0.49900001287460327z"></path></g><g opacity="1" transform="matrix(1,0,0,1,241.54200744628906,255.39199829101562)"><path fill="rgb(255,120,170)" fill-opacity="1" d=" M-2.562000036239624,-3.502000093460083 C-2.562000036239624,-3.502000093460083 -1.2869999408721924,2.634000062942505 -1.2869999408721924,2.634000062942505 C-1.194000005722046,3.0840001106262207 -0.8489999771118164,3.4200000762939453 -0.4300000071525574,3.4590001106262207 C0.0820000022649765,3.506999969482422 0.8119999766349792,3.5360000133514404 1.5449999570846558,3.427999973297119 C2.203000068664551,3.3310000896453857 2.6610000133514404,2.6630001068115234 2.5439999103546143,1.9459999799728394 C2.5439999103546143,1.9459999799728394 1.6579999923706055,-3.502000093460083 1.6579999923706055,-3.502000093460083 C1.6579999923706055,-3.502000093460083 -2.562000036239624,-3.502000093460083 -2.562000036239624,-3.502000093460083z"></path></g><g opacity="1" transform="matrix(1,0,0,1,275.07501220703125,265.8169860839844)"><path fill="rgb(52,67,230)" fill-opacity="1" d=" M-3.63700008392334,0.006000000052154064 C-6.745999813079834,-0.08100000023841858 -8.354999542236328,-0.44699999690055847 -9.185999870300293,-0.7870000004768372 C-9.187999725341797,-0.4779999852180481 -9.185999870300293,-0.16300000250339508 -9.175999641418457,0.16300000250339508 C-9.164999961853027,0.5109999775886536 -8.906999588012695,0.7889999747276306 -8.59000015258789,0.7870000004768372 C-8.59000015258789,0.7870000004768372 8.479999542236328,0.6769999861717224 8.479999542236328,0.6769999861717224 C9.024999618530273,0.6729999780654907 9.343999862670898,0.041999999433755875 9.107999801635742,-0.4580000042915344 C6.869999885559082,-0.27300000190734863 1.1690000295639038,0.14100000262260437 -3.63700008392334,0.006000000052154064z"></path></g><g opacity="1" transform="matrix(1,0,0,1,275.07501220703125,261.4219970703125)"><path fill="rgb(37,48,173)" fill-opacity="1" d=" M9.147000312805176,3.937000036239624 C9.12600040435791,3.8940000534057617 9.107999801635742,3.8489999771118164 9.079000473022461,3.808000087738037 C7.571000099182129,1.7020000219345093 3.7320001125335693,-2.493000030517578 -3.8550000190734863,-4.311999797821045 C-3.8550000190734863,-4.311999797821045 -7.494999885559082,-4.427000045776367 -7.494999885559082,-4.427000045776367 C-7.494999885559082,-4.427000045776367 -9.116000175476074,-1.6100000143051147 -9.147000312805176,3.6080000400543213 C-8.315999984741211,3.947999954223633 -6.706999778747559,4.314000129699707 -3.5980000495910645,4.401000022888184 C1.2079999446868896,4.535999774932861 6.908999919891357,4.122000217437744 9.147000312805176,3.937000036239624z"></path></g><g opacity="1" transform="matrix(1,0,0,1,269.26300048828125,254.42999267578125)"><path fill="rgb(255,120,170)" fill-opacity="1" d=" M-2.3580000400543213,-2.9509999752044678 C-2.318000078201294,-2.680000066757202 -1.819000005722046,1.4429999589920044 -1.6260000467300415,3.0420000553131104 C-1.5800000429153442,3.421999931335449 -1.3049999475479126,3.7170000076293945 -0.9580000042915344,3.757999897003174 C-0.33799999952316284,3.8320000171661377 0.6650000214576721,3.8989999294281006 1.5420000553131104,3.7190001010894775 C2.015000104904175,3.621999979019165 2.3580000400543213,3.1679999828338623 2.3580000400543213,2.6389999389648438 C2.3580000400543213,2.6389999389648438 2.3580000400543213,-3.8340001106262207 2.3580000400543213,-3.8340001106262207 C2.3580000400543213,-3.8340001106262207 -2.3580000400543213,-2.9509999752044678 -2.3580000400543213,-2.9509999752044678z"></path></g><g opacity="1" transform="matrix(1,0,0,1,255.16000366210938,213.38400268554688)"><path fill="rgb(37,48,173)" fill-opacity="1" d=" M-13.748000144958496,-42.064998626708984 C-13.748000144958496,-42.064998626708984 -19.572999954223633,9.706999778747559 -16.336999893188477,42.064998626708984 C-16.336999893188477,42.064998626708984 -12.45300006866455,42.064998626708984 -10.51200008392334,41.417999267578125 C-10.51200008392334,41.417999267578125 -4.460000038146973,-9.20199966430664 -2.502000093460083,-23.687000274658203 C-2.427999973297119,-24.232999801635742 -1.6480000019073486,-24.257999420166016 -1.5410000085830688,-23.718000411987305 C0.875,-11.531999588012695 10.36299991607666,36.257999420166016 11.491000175476074,40.770999908447266 C11.491000175476074,40.770999908447266 14.72599983215332,42.064998626708984 17.315000534057617,40.770999908447266 C17.315000534057617,40.770999908447266 12.137999534606934,-28.475000381469727 8.255000114440918,-40.770999908447266 C8.255000114440918,-40.770999908447266 -13.748000144958496,-42.064998626708984 -13.748000144958496,-42.064998626708984z"></path></g><g opacity="1" transform="matrix(1,0,0,1,251.93299865722656,141.71600341796875)"><path fill="rgb(52,67,230)" fill-opacity="1" d=" M-22.170000076293945,-30.58300018310547 C-22.170000076293945,-30.58300018310547 -2.5889999866485596,-33.22700119018555 15.279000282287598,-30.530000686645508 C19.700000762939453,-29.863000869750977 22.780000686645508,-25.791000366210938 22.180999755859375,-21.360000610351562 C22.180999755859375,-21.360000610351562 20.54199981689453,-9.22700023651123 20.54199981689453,-9.22700023651123 C20.54199981689453,-9.22700023651123 15.364999771118164,18.60099983215332 11.482000350952148,30.89699935913086 C11.482000350952148,30.89699935913086 -3.4019999504089355,33.486000061035156 -10.520999908447266,29.60300064086914 C-10.520999908447266,29.60300064086914 -16.344999313354492,-5.343999862670898 -19.58099937438965,-10.520999908447266 C-19.58099937438965,-10.520999908447266 -22.816999435424805,-24.111000061035156 -22.170000076293945,-30.58300018310547z"></path></g><g opacity="1" transform="matrix(1,0,0,1,250.21600341796875,102.41300201416016)"><path fill="rgb(255,120,170)" fill-opacity="1" d=" M-3.36899995803833,-8.963000297546387 C-3.36899995803833,-8.963000297546387 -5.818999767303467,7.604000091552734 -5.818999767303467,7.604000091552734 C-5.818999767303467,7.604000091552734 1.0260000228881836,10.74899959564209 5.818999767303467,7.46999979019165 C5.818999767303467,7.46999979019165 4.7870001792907715,-4.2230000495910645 4.7870001792907715,-4.2230000495910645 C4.7870001792907715,-4.2230000495910645 -3.36899995803833,-8.963000297546387 -3.36899995803833,-8.963000297546387z"></path></g><g opacity="1" transform="matrix(1,0,0,1,0,0)"><g opacity="1" transform="matrix(1,0,0,1,252.79400634765625,91.16899871826172)"><path fill="rgb(255,120,170)" fill-opacity="1" d=" M4.60099983215332,-8.505999565124512 C4.677999973297119,-8.366000175476074 6.1539998054504395,-0.012000000104308128 7.063000202178955,5.158999919891357 C7.439000129699707,7.296000003814697 5.86899995803833,9.281000137329102 3.703000068664551,9.409000396728516 C3.703000068664551,9.409000396728516 1.7200000286102295,9.526000022888184 1.7200000286102295,9.526000022888184 C-1.9240000247955322,9.741999626159668 -5.132999897003174,7.1479997634887695 -5.684999942779541,3.5399999618530273 C-5.684999942779541,3.5399999618530273 -7.11899995803833,-5.828000068664551 -7.11899995803833,-5.828000068664551 C-7.11899995803833,-5.828000068664551 2.7279999256134033,-11.904000282287598 4.60099983215332,-8.505999565124512z"></path></g><g opacity="1" transform="matrix(1,0,0,1,251.37899780273438,84.6760025024414)"><path fill="rgb(38,50,174)" fill-opacity="1" d=" M-7.8420000076293945,0.6880000233650208 C-8.60200023651123,-0.257999986410141 -9.265000343322754,-1.7860000133514404 -7.645999908447266,-3.3940000534057617 C-6.006999969482422,-5.021999835968018 -4.1479997634887695,-4.616000175476074 -2.9679999351501465,-4.070000171661377 C-2.446000099182129,-3.828000068664551 -1.8020000457763672,-3.934999942779541 -1.4299999475479126,-4.374000072479248 C-1.2649999856948853,-4.568999767303467 -1.0199999809265137,-4.703000068664551 -0.656000018119812,-4.6620001792907715 C0.029999999329447746,-4.585000038146973 0.6420000195503235,-5.038000106811523 0.7229999899864197,-5.7230000495910645 C0.8629999756813049,-6.8979997634887695 1.4880000352859497,-8.281000137329102 3.565000057220459,-8.682000160217285 C7.375,-9.418000221252441 9.276000022888184,-5.605999946594238 9.208000183105469,-2.9260001182556152 C9.140000343322754,-0.2460000067949295 4.964000225067139,0.3179999887943268 2.5950000286102295,-0.12700000405311584 C0.8550000190734863,-0.45399999618530273 -0.6499999761581421,1.0750000476837158 -1.3259999752044678,1.909999966621399 C-1.5709999799728394,2.2130000591278076 -1.6629999876022339,2.609999895095825 -1.5750000476837158,2.990000009536743 C-1.5750000476837158,2.990000009536743 -0.9729999899864197,5.578999996185303 -0.9729999899864197,5.578999996185303 C-1.3899999856948853,6.383999824523926 -1.7990000247955322,7.204999923706055 -2.384999990463257,7.892000198364258 C-2.806999921798706,8.38700008392334 -3.2699999809265137,8.65999984741211 -3.759999990463257,8.774999618530273 C-4.46999979019165,7.453000068664551 -6.458000183105469,7.229000091552734 -7.38100004196167,7.198999881744385 C-7.734000205993652,7.188000202178955 -8.064000129699707,7.031000137329102 -8.295999526977539,6.764999866485596 C-8.993000030517578,5.966000080108643 -10.083000183105469,4.184000015258789 -7.995999813079834,2.434000015258789 C-7.4770002365112305,1.9989999532699585 -7.418000221252441,1.215999960899353 -7.8420000076293945,0.6880000233650208z"></path></g><g opacity="1" transform="matrix(1,0,0,1,245.8679962158203,93.93699645996094)"><path fill="rgb(255,120,170)" fill-opacity="1" d=" M2.437999963760376,2.2850000858306885 C2.437999963760376,2.2850000858306885 2.3559999465942383,-2.390000104904175 0.46399998664855957,-2.8289999961853027 C-1.4279999732971191,-3.2679998874664307 -3.4690001010894775,-1.9010000228881836 -1.8509999513626099,0.8980000019073486 C0.16200000047683716,4.379000186920166 2.437999963760376,2.2850000858306885 2.437999963760376,2.2850000858306885z"></path></g></g><g opacity="1" transform="matrix(1,0,0,1,292.3819885253906,133.31399536132812)"><path fill="rgb(56,73,255)" fill-opacity="1" d=" M-21.604999542236328,4.320000171661377 C-21.604999542236328,4.320000171661377 -14.42199993133545,32.744998931884766 21.604999542236328,1.4299999475479126 C21.604999542236328,1.4299999475479126 18.843000411987305,-0.25600001215934753 18.843000411987305,-0.25600001215934753 C18.843000411987305,-0.25600001215934753 -12.87600040435791,22.246000289916992 -18.46500015258789,-16.138999938964844 C-18.46500015258789,-16.138999938964844 -21.604999542236328,0.8679999709129333 -21.604999542236328,4.320000171661377z"></path></g><g opacity="1" transform="matrix(1,0,0,1,316.4549865722656,130.45599365234375)"><path fill="rgb(255,120,170)" fill-opacity="1" d=" M-2.6549999713897705,4.488999843597412 C-2.6549999713897705,4.488999843597412 4.880000114440918,4.61299991607666 5.254000186920166,0.8240000009536743 C5.627999782562256,-2.9649999141693115 1.7979999780654907,-3.9630000591278076 -0.11699999868869781,-4.461999893188477 C-2.0320000648498535,-4.960999965667725 -5.361999988555908,1.534000039100647 -5.2779998779296875,2.7829999923706055 C-5.193999767303467,4.0320000648498535 -2.6549999713897705,4.488999843597412 -2.6549999713897705,4.488999843597412z"></path></g></g></g><g style="display: block;" transform="matrix(0,0,0,0,263.4530029296875,267.1520080566406)" opacity="1"><g opacity="1" transform="matrix(1,0,0,1,0,0)"><g opacity="1" transform="matrix(1,0,0,1,0,0)"><g opacity="1" transform="matrix(1,0,0,1,223.0050048828125,106.46800231933594)"><path fill="rgb(52,68,230)" fill-opacity="1" d=" M17.827999114990234,27.011999130249023 C17.827999114990234,27.011999130249023 -32.755001068115234,1.531999945640564 -26.398000717163086,-12.01200008392334 C-26.398000717163086,-12.01200008392334 -24.531999588012695,-9.369000434875488 -24.531999588012695,-9.369000434875488 C-24.531999588012695,-9.369000434875488 -14.255000114440918,-2.4679999351501465 10.942999839782715,4.480999946594238 C10.942999839782715,4.480999946594238 18.076000213623047,22.875999450683594 17.827999114990234,27.011999130249023z"></path></g></g></g></g><g style="display: block;" transform="matrix(0,0,0,0,263.4530029296875,267.1520080566406)" opacity="1"><g opacity="1" transform="matrix(1,0,0,1,0,0)"><g opacity="1" transform="matrix(1,0,0,1,0,0)"><g opacity="1" transform="matrix(1,0,0,1,217.05299377441406,76.80500030517578)"><path fill="rgb(255,120,170)" fill-opacity="1" d=" M-4.382999897003174,2.8510000705718994 C-4.382999897003174,2.8510000705718994 -5.008999824523926,-4.658999919891357 -1.253999948501587,-5.284999847412109 C2.500999927520752,-5.910999774932861 3.753000020980835,-2.1559998989105225 4.379000186920166,-0.27799999713897705 C5.005000114440918,1.600000023841858 -1.253999948501587,5.355000019073486 -2.50600004196167,5.355000019073486 C-3.757999897003174,5.355000019073486 -4.382999897003174,2.8510000705718994 -4.382999897003174,2.8510000705718994z"></path></g></g></g></g></g></svg>